<svg width="183" height="40" viewBox="0 0 183 40" fill="none" xmlns="http://www.w3.org/2000/svg">
<path d="M94.3896 24.5666C93.2306 24.5666 92.2191 24.3555 91.3551 23.9333C90.4911 23.49 89.8168 22.8988 89.3321 22.16C88.8685 21.4 88.6367 20.5555 88.6367 19.6266C88.6367 18.0222 89.1846 16.7555 90.2804 15.8266C91.3762 14.8766 92.9988 14.4016 95.1482 14.4016H98.9729V14.0216C98.9729 13.1561 98.6989 12.4594 98.1511 11.9316C97.6242 11.3827 96.9078 11.1083 96.0016 11.1083C95.1798 11.1083 94.516 11.2983 94.0103 11.6783C93.5045 12.0583 93.1884 12.5016 93.062 13.0083H89.2373C89.3216 12.1216 89.6377 11.2877 90.1856 10.5066C90.7335 9.72551 91.5026 9.10273 92.493 8.63829C93.4834 8.15273 94.653 7.90995 96.0016 7.90995C97.3924 7.90995 98.6041 8.17384 99.6367 8.70162C100.669 9.20829 101.459 9.92606 102.007 10.855C102.555 11.7838 102.829 12.8394 102.829 14.0216V24.25H99.4786L99.1625 22.6666H99.0045C98.6463 23.1522 98.0562 23.5955 97.2344 23.9966C96.4126 24.3766 95.4643 24.5666 94.3896 24.5666ZM95.0534 21.4316C96.2756 21.4316 97.2344 21.0938 97.9298 20.4183C98.6252 19.7427 98.9729 18.8244 98.9729 17.6633V17.1883H95.5275C94.516 17.1883 93.7574 17.3888 93.2516 17.79C92.767 18.17 92.5246 18.6872 92.5246 19.3416C92.5246 19.975 92.7459 20.4816 93.1884 20.8616C93.631 21.2416 94.2526 21.4316 95.0534 21.4316Z" fill="#171E26"/>
<path d="M102.664 24.25V8.22662H105.983L106.299 9.58828H106.457C107.09 8.68051 108.059 8.22662 109.365 8.22662H112.305V11.8683H109.618C108.607 11.8683 107.838 12.1427 107.311 12.6916C106.784 13.2194 106.521 14.0005 106.521 15.035V24.25H102.664Z" fill="#171E26"/>
<path d="M118.749 24.25C117.463 24.25 116.473 23.9227 115.778 23.2683C115.082 22.5927 114.734 21.6638 114.734 20.4816V11.8683H112.206V8.22662H114.734V3.41328H118.622V8.22662H122.257V11.8683H118.622V19.69C118.622 20.0488 118.707 20.3127 118.875 20.4816C119.044 20.6505 119.307 20.735 119.665 20.735H122.257V24.25H118.749Z" fill="#171E26"/>
<path d="M133.056 24.5667C131.981 24.5667 131.033 24.3767 130.211 23.9967C129.41 23.5956 128.757 23.0678 128.251 22.4133H128.093L127.777 24.25H124.458V2.08333H128.314V9.905H128.472C128.936 9.335 129.558 8.86 130.337 8.48C131.138 8.1 132.044 7.91 133.056 7.91C134.425 7.91 135.669 8.25833 136.786 8.955C137.923 9.65166 138.819 10.6333 139.472 11.9C140.126 13.1667 140.452 14.6128 140.452 16.2383C140.452 17.8639 140.126 19.31 139.472 20.5767C138.819 21.8433 137.923 22.825 136.786 23.5217C135.669 24.2183 134.425 24.5667 133.056 24.5667ZM132.455 20.9883C133.635 20.9883 134.615 20.5556 135.395 19.69C136.196 18.8033 136.596 17.6528 136.596 16.2383C136.596 14.8239 136.196 13.6839 135.395 12.8183C134.615 11.9317 133.635 11.4883 132.455 11.4883C131.275 11.4883 130.285 11.9317 129.484 12.8183C128.704 13.6839 128.314 14.8239 128.314 16.2383C128.314 17.6528 128.704 18.8033 129.484 19.69C130.285 20.5556 131.275 20.9883 132.455 20.9883Z" fill="#171E26"/>
<path d="M149.66 24.5667C148.143 24.5667 146.763 24.2078 145.519 23.49C144.276 22.7722 143.296 21.78 142.58 20.5133C141.884 19.2467 141.537 17.8217 141.537 16.2383C141.537 14.655 141.884 13.23 142.58 11.9633C143.296 10.6967 144.276 9.70444 145.519 8.98666C146.763 8.26888 148.143 7.91 149.66 7.91C151.135 7.91 152.473 8.25833 153.674 8.955C154.876 9.65166 155.813 10.6122 156.488 11.8367C157.183 13.04 157.531 14.3911 157.531 15.89C157.531 16.5867 157.478 17.125 157.373 17.505H145.393C145.54 18.6239 146.015 19.5422 146.815 20.26C147.616 20.9567 148.564 21.305 149.66 21.305C150.461 21.305 151.167 21.1361 151.778 20.7983C152.41 20.4606 152.863 20.0489 153.137 19.5633H157.088C156.646 20.8933 155.782 22.065 154.496 23.0783C153.232 24.0706 151.62 24.5667 149.66 24.5667ZM153.674 14.8767C153.569 13.8 153.148 12.9028 152.41 12.185C151.673 11.4672 150.756 11.1083 149.66 11.1083C148.501 11.1083 147.542 11.4672 146.784 12.185C146.025 12.8817 145.561 13.7789 145.393 14.8767H153.674Z" fill="#171E26"/>
<path d="M166.701 24.5667C165.183 24.5667 163.803 24.2078 162.56 23.49C161.317 22.7722 160.337 21.78 159.62 20.5133C158.925 19.2467 158.577 17.8217 158.577 16.2383C158.577 14.655 158.925 13.23 159.62 11.9633C160.337 10.6967 161.317 9.70444 162.56 8.98666C163.803 8.26888 165.183 7.91 166.701 7.91C168.176 7.91 169.514 8.25833 170.715 8.955C171.916 9.65166 172.854 10.6122 173.528 11.8367C174.224 13.04 174.571 14.3911 174.571 15.89C174.571 16.5867 174.519 17.125 174.413 17.505H162.433C162.581 18.6239 163.055 19.5422 163.856 20.26C164.657 20.9567 165.605 21.305 166.701 21.305C167.501 21.305 168.207 21.1361 168.818 20.7983C169.451 20.4606 169.904 20.0489 170.178 19.5633H174.129C173.686 20.8933 172.822 22.065 171.537 23.0783C170.272 24.0706 168.66 24.5667 166.701 24.5667ZM170.715 14.8767C170.61 13.8 170.188 12.9028 169.451 12.185C168.713 11.4672 167.796 11.1083 166.701 11.1083C165.542 11.1083 164.583 11.4672 163.824 12.185C163.066 12.8817 162.602 13.7789 162.433 14.8767H170.715Z" fill="#171E26"/>
<path d="M55.2216 24.5667C53.6411 24.5667 52.3241 24.2923 51.2704 23.7434C50.2379 23.1945 49.4793 22.5189 48.9946 21.7167C48.5099 20.9145 48.2676 20.1334 48.2676 19.3734H52.0607C52.0607 19.9434 52.3346 20.4395 52.8825 20.8617C53.4304 21.2628 54.2101 21.4634 55.2216 21.4634C56.212 21.4634 56.9601 21.3051 57.4658 20.9884C57.9716 20.6506 58.2244 20.2284 58.2244 19.7217C58.2244 19.2362 58.0559 18.8456 57.7187 18.5501C57.3815 18.2545 56.8231 18.0434 56.0434 17.9167L53.5463 17.5051C50.1325 16.9562 48.4256 15.3939 48.4256 12.8184C48.4256 11.9106 48.6785 11.0873 49.1842 10.3484C49.69 9.60949 50.4381 9.01838 51.4285 8.57505C52.44 8.13172 53.6517 7.91005 55.0635 7.91005C56.4754 7.91005 57.6871 8.16338 58.6986 8.67005C59.7311 9.17672 60.5108 9.82061 61.0377 10.6017C61.5645 11.3828 61.8279 12.1851 61.8279 13.0084H58.0664C58.0664 12.4595 57.7925 11.9951 57.2446 11.6151C56.7177 11.2139 55.9907 11.0134 55.0635 11.0134C54.1785 11.0134 53.4936 11.1928 53.0089 11.5517C52.5243 11.8895 52.2819 12.3012 52.2819 12.7867C52.2819 13.6101 52.9773 14.1378 54.3681 14.3701L56.9601 14.7817C58.688 15.0562 59.9629 15.6051 60.7848 16.4284C61.6277 17.2306 62.0491 18.3178 62.0491 19.6901C62.0491 20.5978 61.7963 21.4212 61.2905 22.1601C60.7848 22.8989 60.0156 23.4901 58.9831 23.9334C57.9505 24.3556 56.6967 24.5667 55.2216 24.5667Z" fill="#171E26"/>
<path d="M63.823 24.2501V8.22672H67.1419L67.458 9.74672H67.616C67.9743 9.28227 68.5116 8.86005 69.2281 8.48005C69.9446 8.10005 70.7243 7.91005 71.5672 7.91005C72.6419 7.91005 73.5691 8.16338 74.3488 8.67005C75.1285 9.15561 75.6869 9.69394 76.0241 10.2851H76.1821C76.6036 9.65172 77.2568 9.10283 78.1419 8.63838C79.0269 8.15283 80.0384 7.91005 81.1763 7.91005C82.2721 7.91005 83.2625 8.18449 84.1476 8.73338C85.0537 9.28227 85.7597 10.0423 86.2654 11.0134C86.7922 11.9845 87.0556 13.0823 87.0556 14.3067V24.2501H83.1677V14.7501C83.1677 13.7578 82.9148 12.9873 82.4091 12.4384C81.9034 11.8684 81.229 11.5834 80.3861 11.5834C79.5432 11.5834 78.8267 11.8895 78.2367 12.5017C77.6677 13.0928 77.3833 13.8423 77.3833 14.7501V24.2501H73.4953V14.7501C73.4953 13.7578 73.2425 12.9873 72.7367 12.4384C72.231 11.8684 71.5566 11.5834 70.7137 11.5834C69.8708 11.5834 69.1544 11.8895 68.5643 12.5017C67.9743 13.0928 67.6793 13.8423 67.6793 14.7501V24.2501H63.823Z" fill="#171E26"/>
<path d="M51.5376 36.5027C50.9301 36.5027 50.3748 36.3483 49.8718 36.0394C49.3753 35.7304 48.98 35.3007 48.6861 34.75C48.3921 34.1993 48.2451 33.5748 48.2451 32.8764C48.2451 32.1779 48.3921 31.5534 48.6861 31.0027C48.98 30.4521 49.3753 30.0223 49.8718 29.7134C50.3748 29.4044 50.9301 29.25 51.5376 29.25C52.0602 29.25 52.5339 29.3608 52.9585 29.5824C53.3831 29.7973 53.7359 30.0928 54.0168 30.4688C54.3042 30.8449 54.5035 31.2646 54.6145 31.728H53.5464C53.4027 31.2915 53.1512 30.9389 52.7919 30.6703C52.4391 30.395 52.021 30.2573 51.5376 30.2573C51.126 30.2573 50.7472 30.3681 50.4009 30.5897C50.0547 30.8046 49.7803 31.1135 49.5778 31.5165C49.3753 31.9127 49.274 32.366 49.274 32.8764C49.274 33.3867 49.3753 33.8434 49.5778 34.2463C49.7803 34.6425 50.0547 34.9514 50.4009 35.1731C50.7472 35.388 51.126 35.4954 51.5376 35.4954C52.0341 35.4954 52.4587 35.3577 52.8115 35.0824C53.1643 34.8004 53.4092 34.431 53.5464 33.9743H54.6145C54.5035 34.4511 54.3075 34.8809 54.0266 35.2637C53.7457 35.6465 53.3929 35.9487 52.9683 36.1703C52.5436 36.3919 52.0668 36.5027 51.5376 36.5027Z" fill="#171E26" fill-opacity="0.6"/>
<path d="M55.403 36.402V31.3351H56.236L56.334 31.8086H56.383C56.4809 31.6541 56.5985 31.5366 56.7357 31.456C56.8794 31.3754 57.0689 31.3351 57.3041 31.3351H58.1664V32.272H57.3923C57.0656 32.272 56.8141 32.3626 56.6377 32.5439C56.4613 32.7253 56.3732 32.9838 56.3732 33.3196V36.402H55.403Z" fill="#171E26" fill-opacity="0.6"/>
<path d="M60.8079 36.5027C60.3506 36.5027 59.9357 36.3919 59.5634 36.1703C59.191 35.942 58.897 35.6297 58.6814 35.2335C58.4724 34.8306 58.3679 34.3739 58.3679 33.8635C58.3679 33.3599 58.4724 32.9099 58.6814 32.5137C58.897 32.1108 59.191 31.7985 59.5634 31.5769C59.9357 31.3486 60.3506 31.2344 60.8079 31.2344C61.2651 31.2344 61.6767 31.3486 62.0425 31.5769C62.4149 31.7985 62.7056 32.1108 62.9147 32.5137C63.1302 32.9099 63.238 33.3599 63.238 33.8635C63.238 34.3739 63.1302 34.8306 62.9147 35.2335C62.7056 35.6297 62.4149 35.942 62.0425 36.1703C61.6767 36.3919 61.2651 36.5027 60.8079 36.5027ZM60.8079 35.576C61.0757 35.576 61.3207 35.5055 61.5428 35.3645C61.7714 35.2234 61.9511 35.022 62.0817 34.7601C62.2124 34.4982 62.2777 34.1993 62.2777 33.8635C62.2777 33.5278 62.2124 33.2323 62.0817 32.9771C61.9511 32.7152 61.7714 32.5137 61.5428 32.3727C61.3207 32.2317 61.0757 32.1612 60.8079 32.1612C60.54 32.1612 60.2918 32.2317 60.0631 32.3727C59.841 32.5137 59.6646 32.7152 59.534 32.9771C59.4033 33.2323 59.338 33.5278 59.338 33.8635C59.338 34.1993 59.4033 34.4982 59.534 34.7601C59.6646 35.022 59.841 35.2234 60.0631 35.3645C60.2918 35.5055 60.54 35.576 60.8079 35.576Z" fill="#171E26" fill-opacity="0.6"/>
<path d="M65.7585 36.5027C65.3208 36.5027 64.9452 36.4221 64.6316 36.261C64.3246 36.0998 64.0927 35.8983 63.9359 35.6566C63.7791 35.4081 63.7007 35.1563 63.7007 34.9011H64.661C64.661 35.1093 64.7558 35.2872 64.9452 35.435C65.1412 35.5827 65.4123 35.6566 65.7585 35.6566C66.1048 35.6566 66.3661 35.5961 66.5425 35.4753C66.7254 35.3477 66.8168 35.1898 66.8168 35.0018C66.8168 34.8205 66.758 34.6761 66.6405 34.5687C66.5229 34.4612 66.3301 34.384 66.0623 34.337L65.2588 34.196C64.2723 34.0214 63.7791 33.5378 63.7791 32.7454C63.7791 32.3089 63.9457 31.9496 64.2789 31.6676C64.612 31.3788 65.0889 31.2344 65.7095 31.2344C66.1211 31.2344 66.4771 31.3116 66.7776 31.4661C67.0847 31.6206 67.3166 31.8187 67.4734 32.0604C67.6367 32.3022 67.7183 32.5574 67.7183 32.826H66.7678C66.7678 32.6178 66.6698 32.4432 66.4739 32.3022C66.2844 32.1544 66.0296 32.0806 65.7095 32.0806C65.396 32.0806 65.1543 32.1444 64.9844 32.272C64.8211 32.3996 64.7394 32.5574 64.7394 32.7454C64.7394 32.8999 64.795 33.0275 64.906 33.1282C65.0236 33.2289 65.2098 33.3028 65.4646 33.3498L66.2779 33.4908C66.7874 33.5781 67.1631 33.746 67.4048 33.9945C67.653 34.243 67.7771 34.5754 67.7771 34.9917C67.7771 35.4283 67.6008 35.7909 67.248 36.0797C66.9018 36.3617 66.4053 36.5027 65.7585 36.5027Z" fill="#171E26" fill-opacity="0.6"/>
<path d="M70.242 36.5027C69.8043 36.5027 69.4287 36.4221 69.1151 36.261C68.8081 36.0998 68.5762 35.8983 68.4194 35.6566C68.2626 35.4081 68.1842 35.1563 68.1842 34.9011H69.1445C69.1445 35.1093 69.2392 35.2872 69.4287 35.435C69.6247 35.5827 69.8958 35.6566 70.242 35.6566C70.5882 35.6566 70.8495 35.5961 71.0259 35.4753C71.2088 35.3477 71.3003 35.1898 71.3003 35.0018C71.3003 34.8205 71.2415 34.6761 71.1239 34.5687C71.0063 34.4612 70.8136 34.384 70.5458 34.337L69.7422 34.196C68.7558 34.0214 68.2626 33.5378 68.2626 32.7454C68.2626 32.3089 68.4292 31.9496 68.7623 31.6676C69.0955 31.3788 69.5724 31.2344 70.193 31.2344C70.6046 31.2344 70.9606 31.3116 71.2611 31.4661C71.5681 31.6206 71.8001 31.8187 71.9568 32.0604C72.1202 32.3022 72.2018 32.5574 72.2018 32.826H71.2513C71.2513 32.6178 71.1533 32.4432 70.9573 32.3022C70.7679 32.1544 70.5131 32.0806 70.193 32.0806C69.8794 32.0806 69.6377 32.1444 69.4679 32.272C69.3046 32.3996 69.2229 32.5574 69.2229 32.7454C69.2229 32.8999 69.2784 33.0275 69.3895 33.1282C69.5071 33.2289 69.6932 33.3028 69.948 33.3498L70.7613 33.4908C71.2709 33.5781 71.6465 33.746 71.8882 33.9945C72.1365 34.243 72.2606 34.5754 72.2606 34.9917C72.2606 35.4283 72.0842 35.7909 71.7315 36.0797C71.3852 36.3617 70.8887 36.5027 70.242 36.5027Z" fill="#171E26" fill-opacity="0.6"/>
<path d="M76.0483 33.9945H72.8342V33.0677H76.0483V33.9945Z" fill="#171E26" fill-opacity="0.6"/>
<path d="M80.0461 36.5027C79.4385 36.5027 78.8832 36.3483 78.3802 36.0394C77.8837 35.7304 77.4885 35.3007 77.1945 34.75C76.9006 34.1993 76.7536 33.5748 76.7536 32.8764C76.7536 32.1779 76.9006 31.5534 77.1945 31.0027C77.4885 30.4521 77.8837 30.0223 78.3802 29.7134C78.8832 29.4044 79.4385 29.25 80.0461 29.25C80.5687 29.25 81.0423 29.3608 81.4669 29.5824C81.8916 29.7973 82.2443 30.0928 82.5252 30.4688C82.8127 30.8449 83.0119 31.2646 83.123 31.728H82.0549C81.9112 31.2915 81.6596 30.9389 81.3003 30.6703C80.9476 30.395 80.5295 30.2573 80.0461 30.2573C79.6345 30.2573 79.2556 30.3681 78.9094 30.5897C78.5631 30.8046 78.2888 31.1135 78.0862 31.5165C77.8837 31.9127 77.7825 32.366 77.7825 32.8764C77.7825 33.3867 77.8837 33.8434 78.0862 34.2463C78.2888 34.6425 78.5631 34.9514 78.9094 35.1731C79.2556 35.388 79.6345 35.4954 80.0461 35.4954C80.5425 35.4954 80.9672 35.3577 81.3199 35.0824C81.6727 34.8004 81.9177 34.431 82.0549 33.9743H83.123C83.0119 34.4511 82.8159 34.8809 82.535 35.2637C82.2541 35.6465 81.9014 35.9487 81.4767 36.1703C81.0521 36.3919 80.5752 36.5027 80.0461 36.5027Z" fill="#171E26" fill-opacity="0.6"/>
<path d="M83.9605 36.402V29.3507H84.9306V31.859H84.9796C85.0972 31.6978 85.2801 31.5534 85.5283 31.4258C85.7831 31.2982 86.0706 31.2344 86.3907 31.2344C86.7696 31.2344 87.106 31.3251 87.4 31.5064C87.7005 31.681 87.9324 31.9295 88.0957 32.2518C88.2656 32.5742 88.3505 32.9435 88.3505 33.3599V36.402H87.3804V33.4405C87.3804 33.0778 87.266 32.7756 87.0374 32.5339C86.8088 32.2921 86.5246 32.1712 86.1849 32.1712C85.9562 32.1712 85.7439 32.2283 85.5479 32.3425C85.3585 32.4566 85.2082 32.6111 85.0972 32.8058C84.9861 33.0006 84.9306 33.2121 84.9306 33.4405V36.402H83.9605Z" fill="#171E26" fill-opacity="0.6"/>
<path d="M90.986 36.5027C90.6398 36.5027 90.3328 36.4356 90.0649 36.3013C89.7971 36.1602 89.5913 35.9722 89.4476 35.7372C89.3039 35.4954 89.232 35.2268 89.232 34.9313C89.232 34.4344 89.3986 34.0381 89.7318 33.7427C90.0649 33.4472 90.5614 33.2994 91.2212 33.2994H92.4755V33.1685C92.4755 32.8394 92.3808 32.5775 92.1913 32.3828C92.0084 32.188 91.7569 32.0906 91.4368 32.0906C91.1298 32.0906 90.8815 32.1645 90.6921 32.3123C90.5026 32.4533 90.3916 32.6245 90.3589 32.826H89.4084C89.428 32.5507 89.5195 32.2921 89.6828 32.0504C89.8461 31.8019 90.078 31.6038 90.3785 31.456C90.679 31.3083 91.0318 31.2344 91.4368 31.2344C92.0509 31.2344 92.5376 31.409 92.8969 31.7582C93.2627 32.1074 93.4456 32.5775 93.4456 33.1685V36.402H92.6029L92.5049 35.848H92.4559C92.3449 36.0159 92.1587 36.167 91.8974 36.3013C91.6361 36.4356 91.3323 36.5027 90.986 36.5027ZM91.084 35.6465C91.5152 35.6465 91.8549 35.5256 92.1031 35.2839C92.3514 35.0354 92.4755 34.6996 92.4755 34.2765V34.0952H91.2898C90.924 34.0952 90.6496 34.1691 90.4667 34.3168C90.2903 34.4646 90.2021 34.656 90.2021 34.891C90.2021 35.1193 90.2772 35.304 90.4275 35.445C90.5843 35.5793 90.8031 35.6465 91.084 35.6465Z" fill="#171E26" fill-opacity="0.6"/>
<path d="M94.5435 36.402V31.3351H95.3764L95.4744 31.859H95.5234C95.6475 31.6978 95.837 31.5534 96.0918 31.4258C96.3465 31.2982 96.6405 31.2344 96.9737 31.2344C97.3526 31.2344 97.689 31.3251 97.983 31.5064C98.2835 31.681 98.5154 31.9295 98.6787 32.2518C98.8486 32.5742 98.9335 32.9435 98.9335 33.3599V36.402H97.9634V33.4405C97.9634 33.0778 97.8491 32.7756 97.6204 32.5339C97.3918 32.2921 97.1076 32.1712 96.7679 32.1712C96.5392 32.1712 96.3269 32.2283 96.131 32.3425C95.9415 32.4566 95.7913 32.6111 95.6802 32.8058C95.5691 33.0006 95.5136 33.2121 95.5136 33.4405V36.402H94.5435Z" fill="#171E26" fill-opacity="0.6"/>
<path d="M100.032 36.402V31.3351H100.865L100.963 31.859H101.012C101.136 31.6978 101.325 31.5534 101.58 31.4258C101.835 31.2982 102.129 31.2344 102.462 31.2344C102.841 31.2344 103.177 31.3251 103.471 31.5064C103.772 31.681 104.004 31.9295 104.167 32.2518C104.337 32.5742 104.422 32.9435 104.422 33.3599V36.402H103.452V33.4405C103.452 33.0778 103.337 32.7756 103.109 32.5339C102.88 32.2921 102.596 32.1712 102.256 32.1712C102.028 32.1712 101.815 32.2283 101.619 32.3425C101.43 32.4566 101.28 32.6111 101.168 32.8058C101.057 33.0006 101.002 33.2121 101.002 33.4405V36.402H100.032Z" fill="#171E26" fill-opacity="0.6"/>
<path d="M107.676 36.5027C107.219 36.5027 106.804 36.3919 106.431 36.1703C106.059 35.942 105.765 35.6297 105.549 35.2335C105.34 34.8306 105.236 34.3739 105.236 33.8635C105.236 33.3599 105.34 32.9099 105.549 32.5137C105.765 32.1108 106.059 31.7985 106.431 31.5769C106.804 31.3486 107.219 31.2344 107.676 31.2344C108.114 31.2344 108.509 31.3419 108.861 31.5568C109.221 31.7717 109.502 32.0671 109.704 32.4432C109.913 32.8193 110.018 33.2424 110.018 33.7124C110.018 33.9475 110.001 34.1254 109.969 34.2463H106.206C106.252 34.656 106.412 34.9917 106.686 35.2536C106.96 35.5088 107.29 35.6364 107.676 35.6364C107.95 35.6364 108.192 35.5726 108.401 35.445C108.61 35.3174 108.767 35.1529 108.871 34.9514H109.881C109.73 35.4014 109.466 35.7741 109.087 36.0696C108.708 36.3583 108.238 36.5027 107.676 36.5027ZM109.057 33.4808C109.025 33.0778 108.881 32.7454 108.626 32.4835C108.372 32.2216 108.055 32.0906 107.676 32.0906C107.284 32.0906 106.954 32.2216 106.686 32.4835C106.418 32.7454 106.258 33.0778 106.206 33.4808H109.057Z" fill="#171E26" fill-opacity="0.6"/>
<path d="M111.884 36.402H110.914V29.3507H111.884V36.402Z" fill="#171E26" fill-opacity="0.6"/>
<path d="M120.926 36.402H119.819L119.231 34.7097H116.076L115.488 36.402H114.371L116.899 29.3507H118.408L120.926 36.402ZM117.556 30.4789L116.409 33.7527H118.898L117.751 30.4789H117.556Z" fill="#171E26" fill-opacity="0.6"/>
<path d="M123.376 36.5027C122.952 36.5027 122.566 36.3919 122.22 36.1703C121.874 35.9487 121.599 35.6364 121.397 35.2335C121.194 34.8306 121.093 34.3739 121.093 33.8635C121.093 33.3532 121.194 32.8999 121.397 32.5036C121.599 32.1007 121.874 31.7884 122.22 31.5668C122.566 31.3452 122.952 31.2344 123.376 31.2344C123.997 31.2344 124.493 31.4762 124.866 31.9597H124.915V29.3507H125.885V36.402H125.052L124.954 35.7573H124.905C124.526 36.2543 124.017 36.5027 123.376 36.5027ZM123.494 35.576C123.749 35.576 123.984 35.5055 124.199 35.3645C124.422 35.2234 124.595 35.022 124.719 34.7601C124.849 34.4982 124.915 34.1993 124.915 33.8635C124.915 33.5278 124.849 33.2323 124.719 32.9771C124.595 32.7152 124.422 32.5137 124.199 32.3727C123.984 32.2317 123.749 32.1612 123.494 32.1612C123.233 32.1612 122.994 32.2317 122.779 32.3727C122.563 32.5137 122.39 32.7152 122.259 32.9771C122.135 33.2323 122.073 33.5278 122.073 33.8635C122.073 34.206 122.135 34.5082 122.259 34.7701C122.39 35.0253 122.563 35.2234 122.779 35.3645C122.994 35.5055 123.233 35.576 123.494 35.576Z" fill="#171E26" fill-opacity="0.6"/>
<path d="M128.723 36.5027C128.285 36.5027 127.91 36.4221 127.596 36.261C127.289 36.0998 127.057 35.8983 126.9 35.6566C126.744 35.4081 126.665 35.1563 126.665 34.9011H127.626C127.626 35.1093 127.72 35.2872 127.91 35.435C128.106 35.5827 128.377 35.6566 128.723 35.6566C129.069 35.6566 129.331 35.5961 129.507 35.4753C129.69 35.3477 129.781 35.1898 129.781 35.0018C129.781 34.8205 129.723 34.6761 129.605 34.5687C129.487 34.4612 129.295 34.384 129.027 34.337L128.223 34.196C127.237 34.0214 126.744 33.5378 126.744 32.7454C126.744 32.3089 126.91 31.9496 127.243 31.6676C127.577 31.3788 128.053 31.2344 128.674 31.2344C129.086 31.2344 129.442 31.3116 129.742 31.4661C130.049 31.6206 130.281 31.8187 130.438 32.0604C130.601 32.3022 130.683 32.5574 130.683 32.826H129.732C129.732 32.6178 129.634 32.4432 129.438 32.3022C129.249 32.1544 128.994 32.0806 128.674 32.0806C128.36 32.0806 128.119 32.1444 127.949 32.272C127.786 32.3996 127.704 32.5574 127.704 32.7454C127.704 32.8999 127.759 33.0275 127.87 33.1282C127.988 33.2289 128.174 33.3028 128.429 33.3498L129.242 33.4908C129.752 33.5781 130.128 33.746 130.369 33.9945C130.618 34.243 130.742 34.5754 130.742 34.9917C130.742 35.4283 130.565 35.7909 130.212 36.0797C129.866 36.3617 129.37 36.5027 128.723 36.5027Z" fill="#171E26" fill-opacity="0.6"/>
<path d="M136.814 36.5027C136.207 36.5027 135.651 36.3483 135.148 36.0394C134.652 35.7304 134.257 35.3007 133.963 34.75C133.669 34.1993 133.522 33.5748 133.522 32.8764C133.522 32.1779 133.669 31.5534 133.963 31.0027C134.257 30.4521 134.652 30.0223 135.148 29.7134C135.651 29.4044 136.207 29.25 136.814 29.25C137.337 29.25 137.81 29.3608 138.235 29.5824C138.66 29.7973 139.012 30.0928 139.293 30.4688C139.581 30.8449 139.78 31.2646 139.891 31.728H138.823C138.679 31.2915 138.428 30.9389 138.068 30.6703C137.716 30.395 137.298 30.2573 136.814 30.2573C136.403 30.2573 136.024 30.3681 135.677 30.5897C135.331 30.8046 135.057 31.1135 134.854 31.5165C134.652 31.9127 134.551 32.366 134.551 32.8764C134.551 33.3867 134.652 33.8434 134.854 34.2463C135.057 34.6425 135.331 34.9514 135.677 35.1731C136.024 35.388 136.403 35.4954 136.814 35.4954C137.311 35.4954 137.735 35.3577 138.088 35.0824C138.441 34.8004 138.686 34.431 138.823 33.9743H139.891C139.78 34.4511 139.584 34.8809 139.303 35.2637C139.022 35.6465 138.669 35.9487 138.245 36.1703C137.82 36.3919 137.343 36.5027 136.814 36.5027Z" fill="#171E26" fill-opacity="0.6"/>
<path d="M142.835 36.5027C142.378 36.5027 141.963 36.3919 141.591 36.1703C141.219 35.942 140.925 35.6297 140.709 35.2335C140.5 34.8306 140.395 34.3739 140.395 33.8635C140.395 33.3599 140.5 32.9099 140.709 32.5137C140.925 32.1108 141.219 31.7985 141.591 31.5769C141.963 31.3486 142.378 31.2344 142.835 31.2344C143.293 31.2344 143.704 31.3486 144.07 31.5769C144.442 31.7985 144.733 32.1108 144.942 32.5137C145.158 32.9099 145.266 33.3599 145.266 33.8635C145.266 34.3739 145.158 34.8306 144.942 35.2335C144.733 35.6297 144.442 35.942 144.07 36.1703C143.704 36.3919 143.293 36.5027 142.835 36.5027ZM142.835 35.576C143.103 35.576 143.348 35.5055 143.57 35.3645C143.799 35.2234 143.979 35.022 144.109 34.7601C144.24 34.4982 144.305 34.1993 144.305 33.8635C144.305 33.5278 144.24 33.2323 144.109 32.9771C143.979 32.7152 143.799 32.5137 143.57 32.3727C143.348 32.2317 143.103 32.1612 142.835 32.1612C142.568 32.1612 142.319 32.2317 142.091 32.3727C141.869 32.5137 141.692 32.7152 141.562 32.9771C141.431 33.2323 141.366 33.5278 141.366 33.8635C141.366 34.1993 141.431 34.4982 141.562 34.7601C141.692 35.022 141.869 35.2234 142.091 35.3645C142.319 35.5055 142.568 35.576 142.835 35.576Z" fill="#171E26" fill-opacity="0.6"/>
<path d="M146.11 36.402V31.3351H146.943L147.041 31.859H147.09C147.214 31.6978 147.388 31.5534 147.61 31.4258C147.832 31.2982 148.074 31.2344 148.335 31.2344C148.675 31.2344 148.968 31.3184 149.217 31.4862C149.472 31.6541 149.648 31.8388 149.746 32.0403H149.795C149.926 31.8321 150.131 31.6474 150.412 31.4862C150.7 31.3184 151.02 31.2344 151.373 31.2344C151.712 31.2344 152.016 31.3217 152.284 31.4963C152.558 31.6642 152.774 31.8993 152.931 32.2014C153.087 32.5036 153.166 32.8495 153.166 33.239V36.402H152.196V33.2994C152.196 32.9502 152.104 32.6749 151.921 32.4734C151.745 32.272 151.506 32.1712 151.206 32.1712C150.912 32.1712 150.657 32.282 150.442 32.5036C150.226 32.7185 150.118 32.9838 150.118 33.2994V36.402H149.158V33.2994C149.158 32.9569 149.066 32.685 148.884 32.4835C148.701 32.2753 148.459 32.1712 148.158 32.1712C147.864 32.1712 147.61 32.282 147.394 32.5036C147.185 32.7185 147.081 32.9838 147.081 33.2994V36.402H146.11Z" fill="#171E26" fill-opacity="0.6"/>
<path d="M154.259 38.4167V31.3351H155.092L155.19 31.9798H155.239C155.618 31.4829 156.127 31.2344 156.768 31.2344C157.192 31.2344 157.578 31.3452 157.924 31.5668C158.27 31.7884 158.541 32.1007 158.737 32.5036C158.94 32.8999 159.041 33.3532 159.041 33.8635C159.041 34.3739 158.94 34.8306 158.737 35.2335C158.541 35.6364 158.27 35.9487 157.924 36.1703C157.578 36.3919 157.192 36.5027 156.768 36.5027C156.441 36.5027 156.153 36.4389 155.905 36.3113C155.657 36.1837 155.448 36.0091 155.278 35.7875H155.229V38.4167H154.259ZM156.65 35.576C156.905 35.576 157.14 35.5055 157.355 35.3645C157.578 35.2234 157.751 35.022 157.875 34.7601C158.005 34.4982 158.071 34.1993 158.071 33.8635C158.071 33.5278 158.005 33.2323 157.875 32.9771C157.751 32.7152 157.578 32.5137 157.355 32.3727C157.14 32.2317 156.905 32.1612 156.65 32.1612C156.395 32.1612 156.157 32.2317 155.935 32.3727C155.719 32.5137 155.546 32.7152 155.415 32.9771C155.291 33.2323 155.229 33.5278 155.229 33.8635C155.229 34.1993 155.291 34.4982 155.415 34.7601C155.546 35.022 155.719 35.2234 155.935 35.3645C156.157 35.5055 156.395 35.576 156.65 35.576Z" fill="#171E26" fill-opacity="0.6"/>
<path d="M161.41 36.5027C161.064 36.5027 160.757 36.4356 160.489 36.3013C160.221 36.1602 160.015 35.9722 159.872 35.7372C159.728 35.4954 159.656 35.2268 159.656 34.9313C159.656 34.4344 159.823 34.0381 160.156 33.7427C160.489 33.4472 160.985 33.2994 161.645 33.2994H162.9V33.1685C162.9 32.8394 162.805 32.5775 162.615 32.3828C162.432 32.188 162.181 32.0906 161.861 32.0906C161.554 32.0906 161.306 32.1645 161.116 32.3123C160.927 32.4533 160.816 32.6245 160.783 32.826H159.832C159.852 32.5507 159.943 32.2921 160.107 32.0504C160.27 31.8019 160.502 31.6038 160.803 31.456C161.103 31.3083 161.456 31.2344 161.861 31.2344C162.475 31.2344 162.962 31.409 163.321 31.7582C163.687 32.1074 163.87 32.5775 163.87 33.1685V36.402H163.027L162.929 35.848H162.88C162.769 36.0159 162.583 36.167 162.321 36.3013C162.06 36.4356 161.756 36.5027 161.41 36.5027ZM161.508 35.6465C161.939 35.6465 162.279 35.5256 162.527 35.2839C162.775 35.0354 162.9 34.6996 162.9 34.2765V34.0952H161.714C161.348 34.0952 161.074 34.1691 160.891 34.3168C160.714 34.4646 160.626 34.656 160.626 34.891C160.626 35.1193 160.701 35.304 160.852 35.445C161.008 35.5793 161.227 35.6465 161.508 35.6465Z" fill="#171E26" fill-opacity="0.6"/>
<path d="M164.968 36.402V31.3351H165.8L165.898 31.859H165.947C166.072 31.6978 166.261 31.5534 166.516 31.4258C166.771 31.2982 167.065 31.2344 167.398 31.2344C167.777 31.2344 168.113 31.3251 168.407 31.5064C168.708 31.681 168.939 31.9295 169.103 32.2518C169.273 32.5742 169.358 32.9435 169.358 33.3599V36.402H168.387V33.4405C168.387 33.0778 168.273 32.7756 168.044 32.5339C167.816 32.2921 167.532 32.1712 167.192 32.1712C166.963 32.1712 166.751 32.2283 166.555 32.3425C166.366 32.4566 166.215 32.6111 166.104 32.8058C165.993 33.0006 165.938 33.2121 165.938 33.4405V36.402H164.968Z" fill="#171E26" fill-opacity="0.6"/>
<path d="M173.653 31.3351H174.681L172.496 37.6007C172.398 37.8895 172.268 38.0977 172.104 38.2253C171.941 38.3529 171.703 38.4167 171.389 38.4167H170.321V37.4899H171.281C171.445 37.4899 171.556 37.3993 171.614 37.2179L171.781 36.7445L169.753 31.3351H170.781L172.183 35.1932H172.379L173.653 31.3351Z" fill="#171E26" fill-opacity="0.6"/>
<path d="M0 6.66667C0 2.98477 2.97934 0 6.65455 0H33.2727C36.9479 0 39.9273 2.98477 39.9273 6.66667V33.3333C39.9273 37.0152 36.9479 40 33.2727 40H6.65455C2.97934 40 0 37.0152 0 33.3333V6.66667Z" fill="#F4C20A"/>
<path d="M8.10848 19.5449H16.0071L19.9564 26.3977L16.0071 33.2504H8.10848L4.15918 26.3977L8.10848 19.5449Z" fill="#171E26"/>
<path d="M12.0578 26.3977L8.10848 33.2504L4.15918 26.3977L8.10848 19.5449L12.0578 26.3977Z" fill="#101112"/>
<path d="M35.7542 12.692H27.8555L23.9062 5.83333H31.8049L35.7542 12.692Z" fill="#101112"/>
<path d="M16.007 19.5448L12.0577 26.3976L8.1084 19.5448L12.0577 12.692L16.007 19.5448Z" fill="#101112"/>
<path d="M19.9561 12.692H27.8547L31.8041 19.5448L27.8547 26.3976H19.9561L16.0068 19.5448L19.9561 12.692Z" fill="#171E26"/>
<path d="M35.7542 12.692H27.8555L23.9062 5.83333H31.8049L35.7542 12.692Z" fill="#101112"/>
<path d="M35.7542 12.692H27.8555L23.9062 5.83333H31.8049L35.7542 12.692Z" fill="#171E26"/>
<path d="M35.7542 12.692L31.8049 19.5448H23.9062V19.5389L27.8555 12.692H35.7542Z" fill="#171E26"/>
<path d="M27.8547 12.692L23.9054 19.5389L19.9561 12.692L23.9054 5.83333L27.8547 12.692Z" fill="white"/>
<path d="M12.0577 12.692H19.9563L23.9056 19.5448L19.9563 26.3976H12.0577L8.1084 19.5448L12.0577 12.692Z" fill="#171E26"/>
<path d="M12.0578 12.692L8.10848 19.5448L4.15918 26.3976L8.10848 33.2504L12.0578 26.3976L16.0071 19.5448L12.0578 12.692Z" fill="white"/>
<path d="M27.8459 31.5413H24.3366L22.582 28.9046H26.0913L27.8459 31.5413Z" fill="#171E26"/>
<path d="M27.8459 31.5413L26.0913 34.8372H22.582V34.8343L24.3366 31.5413H27.8459Z" fill="#171E26"/>
<path d="M24.5563 31.8734L22.5823 34.8371L20.6084 31.8734L22.5823 28.9045L24.5563 31.8734Z" fill="white"/>
<rect x="178.272" y="5.83333" width="1.13681" height="6.83329" fill="#0F78D4"/>
<rect x="175.431" y="9.81941" width="1.13888" height="6.82086" transform="rotate(-90 175.431 9.81941)" fill="#0F78D4"/>
</svg>
